# xmcd
#
# Track frame offsets:
# 150
# 900
# 1650
# 2400
# 3150
# 3900
# 4650
# 5400
# 6150
# 6900
# 7650
# 8400
# 9150
# 230450
#
# Disc length: 4440 seconds
#
#
# Revision: 8
# Processed by: cddbd v1.5.1PL2 Copyright (c) Steve Scherf et al.
# Submitted via: FreeRIP 2.945 
#
DISCID=5911560e
DTITLE=Jet - Get Born
DYEAR=2003
DGENRE=Rock
TTITLE0=Last Chance
TTITLE1=Are You Gunna be My Girl
TTITLE2=Rollover DJ
TTITLE3=Look What You've Done
TTITLE4=Get What You Need
TTITLE5=Move On
TTITLE6=Radio Song
TTITLE7=Get Me Outta Here
TTITLE8=Cold Hard Bitch
TTITLE9=Come Around Again
TTITLE10=Take It or Leave It
TTITLE11=Lazy Gun
TTITLE12=Timothy
TTITLE13=Data Track
EXTD=
EXTT0=
EXTT1=
EXTT2=
EXTT3=
EXTT4=
EXTT5=
EXTT6=
EXTT7=
EXTT8=
EXTT9=
EXTT10=
EXTT11=
EXTT12=
EXTT13=
PLAYORDER=
